<svg width="800" height="600" viewBox="0 0 800 600" fill="none" xmlns="http://www.w3.org/2000/svg">
  <rect width="800" height="600" rx="36" fill="#FFF3F8"/>
  <ellipse cx="400" cy="480" rx="220" ry="38" fill="#F2D6E2"/>
  <rect x="216" y="430" width="368" height="26" rx="13" fill="#F7D3DE"/>
  <rect x="280" y="238" width="28" height="192" rx="12" fill="#FF7A8A"/>
  <rect x="332" y="210" width="28" height="220" rx="12" fill="#FDBB2D"/>
  <rect x="386" y="256" width="28" height="174" rx="12" fill="#9B8AFB"/>
  <rect x="440" y="220" width="28" height="210" rx="12" fill="#66CDAA"/>
  <rect x="492" y="248" width="28" height="182" rx="12" fill="#F8B4C8"/>
  <path d="M294 224C294 210 304 202 304 192C304 202 314 210 314 224C314 236 304 244 304 244C304 244 294 236 294 224Z" fill="#FFD166"/>
  <path d="M346 196C346 182 356 174 356 164C356 174 366 182 366 196C366 208 356 216 356 216C356 216 346 208 346 196Z" fill="#FFD166"/>
  <path d="M400 242C400 228 410 220 410 210C410 220 420 228 420 242C420 254 410 262 410 262C410 262 400 254 400 242Z" fill="#FFD166"/>
  <path d="M454 206C454 192 464 184 464 174C464 184 474 192 474 206C474 218 464 226 464 226C464 226 454 218 454 206Z" fill="#FFD166"/>
  <path d="M506 234C506 220 516 212 516 202C516 212 526 220 526 234C526 246 516 254 516 254C516 254 506 246 506 234Z" fill="#FFD166"/>
</svg>
