<svg width="800" height="600" viewBox="0 0 800 600" fill="none" xmlns="http://www.w3.org/2000/svg">
  <rect width="800" height="600" rx="36" fill="#FFF4F0"/>
  <ellipse cx="400" cy="470" rx="200" ry="42" fill="#ECD7CC"/>
  <rect x="270" y="160" width="260" height="260" rx="42" fill="#F5DFC8"/>
  <rect x="290" y="128" width="220" height="56" rx="22" fill="#A96F57"/>
  <rect x="300" y="192" width="200" height="198" rx="28" fill="#FFF9F4"/>
  <circle cx="350" cy="248" r="28" fill="#D8A36F"/>
  <circle cx="444" cy="248" r="28" fill="#D8A36F"/>
  <circle cx="398" cy="300" r="28" fill="#D8A36F"/>
  <circle cx="350" cy="350" r="28" fill="#D8A36F"/>
  <circle cx="444" cy="350" r="28" fill="#D8A36F"/>
  <circle cx="338" cy="238" r="5" fill="#5C382B"/>
  <circle cx="360" cy="254" r="4" fill="#5C382B"/>
  <circle cx="452" cy="258" r="5" fill="#5C382B"/>
  <circle cx="434" cy="238" r="4" fill="#5C382B"/>
  <circle cx="402" cy="292" r="5" fill="#5C382B"/>
  <circle cx="387" cy="315" r="4" fill="#5C382B"/>
  <circle cx="338" cy="348" r="5" fill="#5C382B"/>
  <circle cx="456" cy="346" r="5" fill="#5C382B"/>
</svg>
