<svg width="800" height="600" viewBox="0 0 800 600" fill="none" xmlns="http://www.w3.org/2000/svg">
  <rect width="800" height="600" rx="36" fill="#FFF8F0"/>
  <ellipse cx="400" cy="488" rx="212" ry="34" fill="#EEDCC4"/>
  <rect x="230" y="426" width="340" height="24" rx="12" fill="#EFD7AA"/>
  <path d="M306 408V246" stroke="#C99B3A" stroke-width="8" stroke-linecap="round"/>
  <path d="M398 408V218" stroke="#C99B3A" stroke-width="8" stroke-linecap="round"/>
  <path d="M494 408V262" stroke="#C99B3A" stroke-width="8" stroke-linecap="round"/>
  <path d="M262 232H348L332 270H278L262 232Z" fill="#F0C96E"/>
  <path d="M352 206H446L424 248H374L352 206Z" fill="#E8A87C"/>
  <path d="M454 248H534L518 286H470L454 248Z" fill="#D4A574"/>
  <circle cx="246" cy="188" r="12" fill="#F8B4C8"/>
  <circle cx="566" cy="198" r="10" fill="#F8B4C8"/>
  <circle cx="530" cy="166" r="8" fill="#FFD166"/>
  <path d="M214 420C244 378 286 360 332 366" stroke="#D9AA50" stroke-width="6" stroke-linecap="round"/>
  <path d="M586 420C556 378 514 360 468 366" stroke="#D9AA50" stroke-width="6" stroke-linecap="round"/>
</svg>
