<svg width="800" height="600" viewBox="0 0 800 600" fill="none" xmlns="http://www.w3.org/2000/svg">
  <rect width="800" height="600" rx="36" fill="#FFF9EC"/>
  <ellipse cx="400" cy="474" rx="208" ry="40" fill="#EFE2B7"/>
  <rect x="228" y="208" width="344" height="220" rx="30" fill="#FFEFB9"/>
  <rect x="246" y="190" width="308" height="48" rx="18" fill="#D4A453"/>
  <rect x="260" y="248" width="84" height="28" rx="10" fill="#F3C95D"/>
  <rect x="358" y="248" width="84" height="28" rx="10" fill="#F3C95D"/>
  <rect x="456" y="248" width="84" height="28" rx="10" fill="#F3C95D"/>
  <rect x="260" y="292" width="84" height="28" rx="10" fill="#F3C95D"/>
  <rect x="358" y="292" width="84" height="28" rx="10" fill="#F3C95D"/>
  <rect x="456" y="292" width="84" height="28" rx="10" fill="#F3C95D"/>
  <rect x="260" y="336" width="84" height="28" rx="10" fill="#F3C95D"/>
  <rect x="358" y="336" width="84" height="28" rx="10" fill="#F3C95D"/>
  <rect x="456" y="336" width="84" height="28" rx="10" fill="#F3C95D"/>
  <circle cx="310" cy="262" r="4" fill="#FFF7D1"/>
  <circle cx="408" cy="306" r="4" fill="#FFF7D1"/>
  <circle cx="506" cy="352" r="4" fill="#FFF7D1"/>
</svg>
