<svg width="800" height="600" viewBox="0 0 800 600" fill="none" xmlns="http://www.w3.org/2000/svg">
  <rect width="800" height="600" rx="36" fill="#FFF9F6"/>
  <ellipse cx="400" cy="496" rx="210" ry="30" fill="#F2E0D7"/>
  <path d="M278 154C330 154 372 198 372 252C372 314 326 356 278 392C230 356 184 314 184 252C184 198 226 154 278 154Z" fill="#F8B4C8"/>
  <path d="M400 124C452 124 494 168 494 222C494 284 448 326 400 362C352 326 306 284 306 222C306 168 348 124 400 124Z" fill="#FFD6A5"/>
  <path d="M522 154C574 154 616 198 616 252C616 314 570 356 522 392C474 356 428 314 428 252C428 198 470 154 522 154Z" fill="#C6C5FF"/>
  <path d="M278 392L258 468" stroke="#A3877D" stroke-width="4"/>
  <path d="M400 362L398 468" stroke="#A3877D" stroke-width="4"/>
  <path d="M522 392L540 468" stroke="#A3877D" stroke-width="4"/>
  <path d="M258 468C294 440 344 440 398 468C452 440 502 440 540 468" stroke="#C79B77" stroke-width="6" stroke-linecap="round"/>
</svg>
