<svg width="800" height="600" viewBox="0 0 800 600" fill="none" xmlns="http://www.w3.org/2000/svg">
  <rect width="800" height="600" rx="36" fill="#FFF4F7"/>
  <ellipse cx="400" cy="470" rx="220" ry="46" fill="#F8D8E1"/>
  <path d="M236 430L394 224L562 430H236Z" fill="#FFEAE1"/>
  <path d="M274 430L394 272L520 430H274Z" fill="#FFF8F3"/>
  <path d="M310 430L396 320L482 430H310Z" fill="#FFD5E0"/>
  <path d="M236 430H562V448C562 460 552 470 540 470H258C246 470 236 460 236 448V430Z" fill="#F7C3D2"/>
  <path d="M250 226C294 194 366 190 430 208C496 228 544 222 576 198V232C546 256 492 258 426 242C360 224 306 228 250 264V226Z" fill="#FFFDFB"/>
  <circle cx="528" cy="182" r="18" fill="#F97393"/>
  <circle cx="560" cy="160" r="14" fill="#FC8EA7"/>
  <path d="M514 168C520 150 538 140 558 144C550 164 532 178 514 168Z" fill="#58B368"/>
  <path d="M546 144C554 130 570 124 584 128C578 144 564 156 546 144Z" fill="#78C07D"/>
  <circle cx="494" cy="164" r="10" fill="#FFE07A"/>
</svg>
