<svg width="800" height="600" viewBox="0 0 800 600" fill="none" xmlns="http://www.w3.org/2000/svg">
  <rect width="800" height="600" rx="36" fill="#F9F1EA"/>
  <ellipse cx="402" cy="470" rx="220" ry="46" fill="#E7D5C6"/>
  <path d="M238 430L396 220L562 430H238Z" fill="#8B5E49"/>
  <path d="M272 430L396 266L522 430H272Z" fill="#E8D7C4"/>
  <path d="M308 430L396 314L486 430H308Z" fill="#A16D56"/>
  <path d="M238 430H562V448C562 460 552 470 540 470H260C248 470 238 460 238 448V430Z" fill="#6B4738"/>
  <path d="M250 228C298 196 364 194 430 210C494 226 544 220 574 196V228C544 252 492 256 426 240C358 224 302 230 250 264V228Z" fill="#F8EFE7"/>
  <path d="M242 244C296 212 362 210 430 226C494 242 544 238 580 212V246C548 268 494 274 426 258C360 242 300 248 242 282V244Z" fill="#D8C0AE"/>
  <circle cx="516" cy="164" r="16" fill="#6F4B3D"/>
  <circle cx="548" cy="146" r="14" fill="#C69B7B"/>
  <circle cx="486" cy="152" r="10" fill="#F3E1CF"/>
</svg>
