<svg width="800" height="600" viewBox="0 0 800 600" fill="none" xmlns="http://www.w3.org/2000/svg">
  <rect width="800" height="600" rx="36" fill="#FFF6F2"/>
  <ellipse cx="398" cy="470" rx="220" ry="46" fill="#F1D6C9"/>
  <path d="M232 430L392 210L566 430H232Z" fill="#6A3B2F"/>
  <path d="M270 430L394 258L528 430H270Z" fill="#8D5442"/>
  <path d="M308 430L396 307L490 430H308Z" fill="#BC7A61"/>
  <path d="M232 430H566V448C566 460 556 470 544 470H254C242 470 232 460 232 448V430Z" fill="#4B2C24"/>
  <path d="M260 206C300 176 366 170 430 188C496 206 542 198 572 172V216C542 240 490 244 426 228C360 210 304 214 260 248V206Z" fill="#4B2C24"/>
  <path d="M248 232C292 198 362 192 430 212C494 230 542 224 574 198V232C544 256 494 260 428 242C360 224 304 228 248 266V232Z" fill="#7B4A3B"/>
  <circle cx="524" cy="174" r="18" fill="#F3A9B6"/>
  <circle cx="554" cy="152" r="14" fill="#FFCCD4"/>
  <circle cx="492" cy="156" r="12" fill="#E8A87C"/>
  <path d="M520 156C520 144 528 134 540 134C552 134 560 144 560 156C560 170 544 182 540 186C536 182 520 170 520 156Z" fill="#7DCE82"/>
</svg>
